# xmcd
#
# Track frame offsets:
#	150
#	18301
#	35434
#	52408
#	76288
#	97185
#	114378
#	128930
#	143263
#	157653
#	173305
#	196286
#	226992
#	242541
#	265354
#
# Disc length: 3757 seconds
#
# Revision: 0
# Processed by: cddbd v1.5.2PL0 Copyright (c) Steve Scherf et al.
# Submitted via: EZCDAudioConverter 9.0.5.1
#
DISCID=b80eab0f
DTITLE=Philipp Fankhauser - Let Life Flow
DYEAR=2019
DGENRE=Blues
TTITLE0=Let Life Flow
TTITLE1=Born All Over
TTITLE2=Cold Cold Winter
TTITLE3=You've Got To Hurt Before You Heal
TTITLE4=Members Only
TTITLE5=The Rock Of Your Love
TTITLE6=The Dark Comes Down
TTITLE7=Here In My Arms
TTITLE8=Stone Cold and Blue
TTITLE9=Milano
TTITLE10=Chasch Mers Gloube
TTITLE11=Wheels To The Road Again
TTITLE12=Tell Me Again
TTITLE13=Wave You Goodbye
TTITLE14=Please Come Home For Christmas
EXTD=
EXTT0=
EXTT1=
EXTT2=
EXTT3=
EXTT4=
EXTT5=
EXTT6=
EXTT7=
EXTT8=
EXTT9=
EXTT10=
EXTT11=
EXTT12=
EXTT13=
EXTT14=
PLAYORDER=
